<?xml version="1.0" standalone="no"?>
<!DOCTYPE svg PUBLIC "-//W3C//DTD SVG 20010904//EN"
 "http://www.w3.org/TR/2001/REC-SVG-20010904/DTD/svg10.dtd">
<svg version="1.0" xmlns="http://www.w3.org/2000/svg"
 width="1280.000000pt" height="986.000000pt" viewBox="0 0 1280.000000 986.000000"
 preserveAspectRatio="xMidYMid meet">
<g transform="translate(0.000000,986.000000) scale(0.100000,-0.100000)"
fill="#000000" stroke="none">
<path d="M11495 9760 c-22 -3 -57 -14 -77 -24 -42 -20 -139 -120 -165 -169 -9
-18 -168 -405 -354 -862 l-337 -830 -2259 -3 c-2550 -3 -5675 11 -5713 26
l-24 9 29 15 c27 14 -1 16 -346 22 -206 4 -750 6 -1209 4 -935 -3 -866 2 -945
-76 -56 -56 -102 -160 -92 -211 21 -110 73 -299 102 -370 26 -66 1023 -3337
1375 -4511 52 -173 58 -205 58 -280 -1 -101 18 -156 68 -199 58 -52 84 -54
489 -47 433 8 475 11 475 36 0 15 13 18 87 24 205 15 1725 37 5263 76 514 6
945 13 957 15 12 3 23 11 25 19 2 7 23 29 48 47 34 26 55 54 87 119 68 136
2192 4876 2199 4907 7 31 501 1141 517 1161 5 6 13 12 17 12 9 0 462 -481 499
-531 54 -71 190 -92 247 -38 76 71 183 399 184 562 l0 68 -89 85 c-49 47 -136
144 -193 216 -263 335 -307 388 -381 460 -83 83 -197 163 -313 221 -62 31 -89
39 -169 51 -11 2 -38 0 -60 -4z m-1321 -2648 c5 -9 -398 -1010 -414 -1026 -7
-7 -23 -6 -53 3 -35 12 -615 15 -3402 21 -3179 7 -3705 11 -3705 31 0 5 -6 9
-14 9 -8 0 -16 6 -19 14 -4 11 -108 14 -567 18 -351 4 -565 9 -571 15 -11 11
-219 796 -219 826 0 16 17 17 223 17 514 0 1137 13 1137 24 0 6 15 18 33 26
27 12 189 15 1017 20 1502 10 6548 11 6554 2z m-714 -1765 c0 -17 -289 -728
-302 -744 -19 -24 -6506 -9 -6568 15 l-24 9 28 15 c26 13 4 15 -250 21 -154 4
-332 7 -397 7 -112 0 -118 1 -127 23 -12 27 -150 554 -150 571 0 14 342 26
713 26 112 0 186 4 182 9 -3 5 9 17 27 27 30 16 119 17 1133 24 605 3 2143 7
3418 8 1899 2 2317 0 2317 -11z m-626 -1515 c3 -5 -54 -152 -126 -328 -72
-175 -139 -341 -148 -369 -15 -41 -24 -51 -47 -56 -39 -8 -5815 9 -5880 17
-50 6 -72 26 -40 37 6 2 -75 8 -180 12 l-193 7 -8 32 c-71 260 -144 557 -139
570 6 14 37 16 269 17 145 1 256 3 247 6 -10 2 -19 13 -22 24 -4 15 0 19 21
20 273 15 6237 25 6246 11z"/>
<path d="M2545 2201 c-328 -117 -588 -411 -682 -770 -31 -118 -42 -326 -23
-453 50 -345 264 -654 571 -822 52 -29 168 -76 186 -76 2 0 -4 11 -12 24 l-16
25 63 -15 c162 -39 345 -45 489 -18 96 18 233 69 323 122 243 141 416 372 494
661 23 87 26 113 26 271 0 157 -3 185 -27 272 -94 350 -348 628 -678 741 -180
62 -404 72 -592 28 -48 -12 -89 -21 -91 -21 -1 0 -3 7 -3 15 0 8 6 15 14 15 7
0 13 5 13 10 0 6 -1 10 -2 9 -2 0 -25 -8 -53 -18z"/>
<path d="M7375 2199 c-558 -59 -971 -582 -914 -1159 67 -669 725 -1108 1344
-897 466 159 764 633 705 1122 -30 250 -134 467 -306 639 -169 169 -377 268
-619 296 -99 11 -96 11 -210 -1z"/>
</g>
</svg>
